<?xml version="1.0" standalone="no"?><!DOCTYPE svg PUBLIC "-//W3C//DTD SVG 1.1//EN" "http://www.w3.org/Graphics/SVG/1.1/DTD/svg11.dtd"><svg t="1615556909684" class="icon" viewBox="0 0 1024 1024" version="1.1" xmlns="http://www.w3.org/2000/svg" p-id="9605" xmlns:xlink="http://www.w3.org/1999/xlink" width="44" height="44"><defs><style type="text/css"></style></defs><path d="M816.7 932.4H209.4c-61.7 0-111.9-48.9-111.9-108.9V406c0-35.3 17.7-68.6 47.4-89l303.7-208.5c38.6-26.5 90.4-26.5 129 0L881.2 317c29.7 20.4 47.4 53.6 47.4 89v417.5c0 60-50.2 108.9-111.9 108.9zM513 138.8c-12.6 0-25.3 3.7-36.1 11.1L173.3 358.4c-16 11-25.6 28.8-25.6 47.6v417.5c0 32.3 27.6 58.6 61.6 58.6h607.4c34 0 61.6-26.3 61.6-58.6V406c0-18.8-9.6-36.6-25.6-47.6L549.1 149.9c-10.8-7.4-23.4-11.1-36.1-11.1z" fill="#d81e06" p-id="9606"></path><path d="M655.5 681.1H370.6c-13.9 0-25.1-11.3-25.1-25.1s11.3-25.1 25.1-25.1h284.8c13.9 0 25.1 11.3 25.1 25.1s-11.2 25.1-25 25.1z" fill="#d81e06" p-id="9607"></path></svg>