<?xml version="1.0" standalone="no"?><!DOCTYPE svg PUBLIC "-//W3C//DTD SVG 1.1//EN" "http://www.w3.org/Graphics/SVG/1.1/DTD/svg11.dtd"><svg t="1615556931353" class="icon" viewBox="0 0 1024 1024" version="1.1" xmlns="http://www.w3.org/2000/svg" p-id="10448" xmlns:xlink="http://www.w3.org/1999/xlink" width="44" height="44"><defs><style type="text/css"></style></defs><path d="M512 547.9c-56.1 0-108.6-24.4-147.8-68.7-38-42.9-58.9-99.7-58.9-159.8s20.9-116.9 58.9-159.8c39.2-44.3 91.7-68.7 147.8-68.7s108.6 24.4 147.8 68.7c38 42.9 58.9 99.7 58.9 159.8s-20.9 116.9-58.9 159.8c-39.2 44.3-91.7 68.7-147.8 68.7z m0-377c-69.8 0-126.7 66.6-126.7 148.5S442.2 467.9 512 467.9s126.7-66.6 126.7-148.5S581.8 170.9 512 170.9zM916.1 933.1H107.9l16.3-52c12.8-40.8 32-79.1 56.9-114 24.6-34.4 54.3-64.7 88.2-90 70.6-52.6 154.5-80.4 242.7-80.4s172.2 27.8 242.7 80.4c33.9 25.3 63.6 55.6 88.2 90 24.9 34.9 44.1 73.3 56.9 114l16.3 52z m-694.2-80h580.3C746.9 745.7 636.3 676.7 512 676.7s-234.9 69-290.1 176.4z" p-id="10449" fill="#d81e06"></path></svg>